<svg width="100" height="33" viewBox="0 0 100 33" fill="none" xmlns="http://www.w3.org/2000/svg">
<g clip-path="url(#clip0_13_32948)">
<g clip-path="url(#clip1_13_32948)">
<path d="M32.707 30.1677C32.707 31.6635 31.4945 32.8828 30.007 32.8828H2.72024C1.22028 32.8828 0.0078125 31.6635 0.0078125 30.1677V2.72766C0.0078125 1.21928 1.22028 0 2.72024 0H30.007C31.4945 0 32.707 1.21928 32.707 2.72766V30.1677Z" fill="#E9E9E9"/>
<path d="M9.29603 16.4666H9.90849C10.871 16.4666 10.971 15.901 10.971 15.5742C10.971 15.1845 10.846 14.6817 9.90849 14.6817H9.29603V16.4666ZM7.12109 12.9722H10.3835C12.5834 12.9722 13.2084 14.5057 13.2084 15.5742C13.2084 16.6552 12.5834 18.1887 10.3835 18.1887H9.29603V20.753H7.12109V12.9722Z" fill="#E21E32"/>
<path d="M15.2937 14.8325H13.5938V12.9722H19.1686V14.8325H17.4686V20.753H15.2937V14.8325Z" fill="#E21E32"/>
<path d="M25.6456 20.4007C24.9456 20.8783 24.2206 20.9789 23.5581 20.9789C21.2582 20.9789 19.5957 19.3448 19.5957 16.856C19.5957 14.254 21.4207 12.7456 23.5206 12.7456C24.2081 12.7456 24.9956 12.9216 25.6456 13.3615V15.6241C25.2455 15.159 24.6456 14.694 23.8081 14.694C22.6206 14.694 21.8332 15.6493 21.8332 16.9314C21.8332 18.1004 22.5706 19.0306 23.8081 19.0306C24.6206 19.0306 25.2455 18.5906 25.6456 18.1884V20.4007Z" fill="#E21E32"/>
<path d="M11.808 8.83687H11.0078V8.58545H12.9332V8.83687H12.1205V10.8732H11.808V8.83687Z" fill="#E21E32"/>
<path d="M15.1324 9.50266C15.1199 9.13815 14.8574 8.74849 14.3949 8.74849C13.9699 8.74849 13.6574 9.05017 13.5949 9.50266H15.1324ZM15.4449 10.2695C15.2574 10.6465 14.9324 10.9608 14.3949 10.9608C13.6324 10.9608 13.2324 10.3449 13.2324 9.72893C13.2324 9.07532 13.6324 8.49707 14.3949 8.49707C15.1699 8.49707 15.4449 9.1633 15.4449 9.60322V9.75408H13.5699C13.5574 10.194 13.8324 10.7094 14.3949 10.7094C14.5824 10.7094 14.9449 10.6843 15.1949 10.1437L15.4449 10.2695Z" fill="#E21E32"/>
<path d="M16.0703 8.58545H16.3829V9.57847H17.6581V8.58545H17.9707V10.8732H17.6581V9.82989H16.3829V10.8732H16.0703V8.58545Z" fill="#E21E32"/>
<path d="M20.1085 8.83687H19.2711V9.91787C19.2711 10.2195 19.1961 10.4583 18.9836 10.6218H20.1085V8.83687ZM20.421 8.58545V10.6218H20.746V11.4514H20.4586V10.8732H18.7336V11.4514H18.4336V10.6218C18.9211 10.5841 18.9586 10.1064 18.9586 9.70418V8.58545H20.421Z" fill="#E21E32"/>
<path d="M22.9937 9.50266C22.9812 9.13815 22.7312 8.74849 22.2687 8.74849C21.8437 8.74849 21.5187 9.05017 21.4562 9.50266H22.9937ZM23.3062 10.2695C23.1187 10.6465 22.8062 10.9608 22.2687 10.9608C21.5063 10.9608 21.0938 10.3449 21.0938 9.72893C21.0938 9.07532 21.5063 8.49707 22.2687 8.49707C23.0437 8.49707 23.3062 9.1633 23.3062 9.60322V9.75408H21.4312C21.4187 10.194 21.7062 10.7094 22.2687 10.7094C22.4437 10.7094 22.8187 10.6843 23.0687 10.1437L23.3062 10.2695Z" fill="#E21E32"/>
<path d="M25.9202 9.72893C25.9202 9.27644 25.6702 8.74849 25.0453 8.74849C24.5578 8.74849 24.2328 9.18841 24.2328 9.72893C24.2328 10.37 24.6453 10.7094 25.0953 10.7094C25.6078 10.7094 25.9202 10.282 25.9202 9.72893ZM24.2328 8.58505V8.98729C24.3703 8.73591 24.6328 8.49707 25.0827 8.49707C25.7703 8.49707 26.2452 8.98729 26.2452 9.72893C26.2452 10.4203 25.8078 10.9608 25.0953 10.9608C24.6203 10.9608 24.3703 10.6843 24.2578 10.5208V11.9664H23.9453V8.58505H24.2328Z" fill="#E21E32"/>
<path d="M42.0348 10.3313C41.4377 10.3313 40.9389 10.1727 40.5385 9.85566C40.1381 9.54092 39.8974 9.1162 39.8164 8.58159H40.8475C40.9215 8.85007 41.0627 9.0595 41.271 9.20996C41.4816 9.36269 41.735 9.43907 42.0313 9.43907C42.3831 9.43907 42.6747 9.31874 42.9061 9.07803C43.1376 8.8327 43.2683 8.50174 43.2984 8.08515H41.3231V7.27281H43.288C43.251 6.87937 43.1167 6.56689 42.8853 6.33547C42.6585 6.10636 42.375 5.9918 42.0348 5.9918C41.7432 5.9918 41.4897 6.07396 41.2745 6.23829C41.0569 6.40492 40.9158 6.62595 40.851 6.90132H39.8199C39.8847 6.36902 40.1242 5.9351 40.5385 5.59952C40.9482 5.26625 41.4469 5.09961 42.0348 5.09961C42.7568 5.09961 43.3297 5.33334 43.7532 5.80086C44.1744 6.27068 44.385 6.9083 44.385 7.7137C44.385 8.52142 44.1744 9.16019 43.7532 9.63002C43.3343 10.0975 42.7615 10.3313 42.0348 10.3313ZM48.2904 10.2202V6.07512H46.8289L46.7076 8.24138C46.6703 8.91255 46.5397 9.4113 46.3152 9.73764C46.0744 10.0894 45.7114 10.2653 45.2252 10.2653C45.0653 10.2653 44.9395 10.2491 44.8466 10.2167V9.30021C44.9324 9.31874 45.0097 9.32798 45.0795 9.32798C45.3039 9.32798 45.4683 9.2296 45.5723 9.03288C45.6647 8.85469 45.7216 8.56768 45.7425 8.17193L45.8918 5.2107H49.3391V10.2202H48.2904ZM53.5988 10.2202H50.2799V5.2107H53.5988V6.07512H51.3281V7.28321H53.4699V8.08861H51.3281V9.35229H53.5988V10.2202ZM58.7783 10.2202H57.4692L55.5806 8.0192H55.5531V10.2202H54.5048V5.2107H55.5531V7.33182H55.5806L57.4314 5.2107H58.6152L56.5391 7.58177L58.7783 10.2202ZM60.4864 10.2202V6.07512H59.0213V5.2107H63.0033V6.07512H61.5347V10.2202H60.4864ZM65.7979 5.2107C66.3138 5.2107 66.7315 5.36805 67.051 5.68283C67.3727 5.99758 67.5336 6.41186 67.5336 6.92563C67.5336 7.43713 67.3682 7.85141 67.0372 8.16846C66.7061 8.48321 66.2756 8.6406 65.7459 8.6406H64.7563V10.2202H63.708V5.2107H65.7979ZM64.7563 7.82133H65.5166C65.8174 7.82133 66.0512 7.74379 66.2178 7.58871C66.3844 7.43367 66.4675 7.2138 66.4675 6.92914C66.4675 6.64444 66.3844 6.42456 66.2178 6.26953C66.0534 6.11675 65.821 6.04041 65.5201 6.04041H64.7563V7.82133ZM70.5157 5.12387C71.2586 5.12387 71.8465 5.3565 72.2793 5.8217C72.7144 6.28686 72.9317 6.9187 72.9317 7.71717C72.9317 8.51333 72.7144 9.14397 72.2793 9.60918C71.8439 10.0744 71.2564 10.307 70.5157 10.307C69.7727 10.307 69.1848 10.0744 68.752 9.60918C68.317 9.14397 68.0992 8.51333 68.0992 7.71717C68.0992 6.9187 68.317 6.28686 68.752 5.8217C69.1848 5.3565 69.7727 5.12387 70.5157 5.12387ZM70.5157 5.99873C70.106 5.99873 69.7798 6.15381 69.5367 6.46394C69.2914 6.77406 69.1688 7.1918 69.1688 7.71717C69.1688 8.24023 69.2901 8.65682 69.5332 8.96694C69.7762 9.27475 70.1037 9.42868 70.5157 9.42868C70.9254 9.42868 71.2515 9.27475 71.4946 8.96694C71.7377 8.65682 71.859 8.24023 71.859 7.71717C71.859 7.1918 71.7377 6.77406 71.4946 6.46394C71.2515 6.15381 70.9254 5.99873 70.5157 5.99873ZM76.9971 10.2202V8.10945H74.7407V10.2202H73.692V5.2107H74.7407V7.24504H76.9971V5.2107H78.0454V10.2202H76.9971ZM82.3295 10.2202V8.10945H80.073V10.2202H79.0243V5.2107H80.073V7.24504H82.3295V5.2107H83.3777V10.2202H82.3295ZM87.2557 9.00511H85.4956L85.1134 10.2202H84.0376L85.7769 5.2107H87.0091L88.7519 10.2202H87.6374L87.2557 9.00511ZM85.7213 8.22054H87.0299L86.3878 6.16883H86.3634L85.7213 8.22054ZM92.1437 6.03344H91.2789C90.999 6.03344 90.7804 6.10405 90.6231 6.24522C90.4631 6.3887 90.3835 6.58427 90.3835 6.83191C90.3835 7.08418 90.4622 7.27974 90.6195 7.4186C90.7768 7.55978 90.9968 7.63039 91.2789 7.63039H92.1437V6.03344ZM90.2342 10.2202H89.0749L90.3938 8.26569C90.0654 8.16384 89.8037 7.98681 89.6095 7.7345C89.4104 7.47761 89.3109 7.17558 89.3109 6.82845C89.3109 6.3424 89.4753 5.95243 89.8037 5.65853C90.1347 5.35996 90.5768 5.2107 91.1296 5.2107H93.1853V10.2202H92.1437V8.41149H91.4251L90.2342 10.2202ZM43.2984 18.6631V14.5215H41.0939V18.6631H40.0421V13.6536H44.3433V18.6631H43.2984ZM48.4362 18.6631V14.518H46.9747L46.8534 16.6843C46.8165 17.3554 46.6854 17.8542 46.461 18.1805C46.2202 18.5323 45.8571 18.7082 45.371 18.7082C45.2115 18.7082 45.0853 18.692 44.9924 18.6596V17.7431C45.0781 17.7616 45.1559 17.7709 45.2252 17.7709C45.4496 17.7709 45.614 17.6725 45.718 17.4758C45.8109 17.2976 45.8673 17.0106 45.8882 16.6148L46.0375 13.6536H49.4849V18.6631H48.4362ZM52.6856 13.5668C53.4286 13.5668 54.0165 13.7994 54.4493 14.2646C54.8843 14.7297 55.1016 15.3616 55.1016 16.1601C55.1016 16.9562 54.8843 17.5869 54.4493 18.0521C54.0138 18.5173 53.4264 18.7498 52.6856 18.7498C51.9427 18.7498 51.3548 18.5173 50.922 18.0521C50.4869 17.5869 50.2692 16.9562 50.2692 16.1601C50.2692 15.3616 50.4869 14.7297 50.922 14.2646C51.3548 13.7994 51.9427 13.5668 52.6856 13.5668ZM52.6856 14.4416C52.2759 14.4416 51.9498 14.5967 51.7067 14.9068C51.4614 15.2169 51.3388 15.6347 51.3388 16.1601C51.3388 16.6831 51.4601 17.0997 51.7031 17.4098C51.9462 17.7176 52.2737 17.8716 52.6856 17.8716C53.0953 17.8716 53.4215 17.7176 53.6646 17.4098C53.9076 17.0997 54.0289 16.6831 54.0289 16.1601C54.0289 15.6347 53.9076 15.2169 53.6646 14.9068C53.4215 14.5967 53.0953 14.4416 52.6856 14.4416ZM61.5693 19.6525V18.6631H55.9001V13.6536H56.9488V17.7986H58.3721V13.6536H59.4204V17.7986H60.8437V13.6536H61.8924V17.7986H62.5171V19.6525H61.5693ZM66.0094 17.448H64.2493L63.8676 18.6631H62.7913L64.5306 13.6536H65.7632L67.5056 18.6631H66.3915L66.0094 17.448ZM64.475 16.6634H65.7837L65.1416 14.6117H65.1171L64.475 16.6634ZM69.5332 16.5627C69.4936 17.1529 69.3825 17.5545 69.1999 17.7674V17.7952H71.2444V14.5145H69.6652L69.5332 16.5627ZM68.6756 19.6525H67.7246V17.7952H68.0752C68.2419 17.6818 68.3623 17.5186 68.4361 17.3057C68.5009 17.1182 68.5449 16.8439 68.568 16.4829L68.7418 13.6536H72.2931V17.7952H72.9179V19.6525H71.9701V18.6631H68.6756V19.6525ZM77.8232 18.6631H76.5146L74.626 16.4621H74.598V18.6631H73.5498V13.6536H74.598V15.7747H74.626L76.4763 13.6536H77.6601L75.5841 16.0247L77.8232 18.6631ZM81.2497 17.448H79.4896L79.1079 18.6631H78.0316L79.7708 13.6536H81.0031L82.7459 18.6631H81.6318L81.2497 17.448ZM79.7153 16.6634H81.024L80.3818 14.6117H80.3574L79.7153 16.6634ZM42.0938 22.0965C42.6099 22.0965 43.0276 22.2538 43.347 22.5686C43.6687 22.8833 43.8296 23.2976 43.8296 23.8114C43.8296 24.3229 43.6641 24.7372 43.3331 25.0542C43.0022 25.369 42.5717 25.5264 42.0417 25.5264H41.0523V27.1059H40.0039V22.0965H42.0938ZM41.0523 24.7071H41.8126C42.1134 24.7071 42.3472 24.6296 42.5138 24.4745C42.6805 24.3194 42.7638 24.0996 42.7638 23.8149C42.7638 23.5302 42.6805 23.3103 42.5138 23.1553C42.3495 23.0025 42.1169 22.9262 41.816 22.9262H41.0523V24.7071ZM46.8116 22.0096C47.5546 22.0096 48.1425 22.2423 48.5753 22.7075C49.0103 23.1726 49.228 23.8045 49.228 24.6029C49.228 25.3991 49.0103 26.0297 48.5753 26.4949C48.1402 26.9601 47.5524 27.1927 46.8116 27.1927C46.0686 27.1927 45.4807 26.9601 45.0479 26.4949C44.6129 26.0297 44.3954 25.3991 44.3954 24.6029C44.3954 23.8045 44.6129 23.1726 45.0479 22.7075C45.4807 22.2423 46.0686 22.0096 46.8116 22.0096ZM46.8116 22.8845C46.4019 22.8845 46.0757 23.0396 45.8327 23.3497C45.5874 23.6598 45.4647 24.0776 45.4647 24.6029C45.4647 25.126 45.5861 25.5426 45.8291 25.8527C46.0722 26.1605 46.3997 26.3144 46.8116 26.3144C47.2213 26.3144 47.5475 26.1605 47.7905 25.8527C48.0336 25.5426 48.1554 25.126 48.1554 24.6029C48.1554 24.0776 48.0336 23.6598 47.7905 23.3497C47.5475 23.0396 47.2213 22.8845 46.8116 22.8845ZM52.2102 27.217C51.481 27.217 50.9033 26.9833 50.4776 26.5158C50.0519 26.046 49.839 25.4072 49.839 24.5995C49.839 23.7941 50.0528 23.1565 50.4811 22.6866C50.9068 22.2191 51.4832 21.9854 52.2102 21.9854C52.7954 21.9854 53.2908 22.152 53.6957 22.4853C54.1009 22.8209 54.3369 23.2548 54.404 23.7871H53.3731C53.306 23.5117 53.1682 23.2907 52.9598 23.1241C52.747 22.9597 52.4968 22.8776 52.2102 22.8776C51.8142 22.8776 51.4996 23.0315 51.2659 23.3393C51.0295 23.6494 50.9117 24.0683 50.9117 24.596C50.9117 25.1306 51.0286 25.5518 51.2623 25.8596C51.4961 26.1698 51.8129 26.3248 52.2133 26.3248C52.5074 26.3248 52.7572 26.2485 52.9634 26.0957C53.1669 25.9453 53.3046 25.7358 53.3766 25.4674H54.4075C54.3267 26.0043 54.0894 26.429 53.6957 26.7414C53.3002 27.0585 52.8047 27.217 52.2102 27.217ZM57.3479 27.217C56.6187 27.217 56.0415 26.9833 55.6158 26.5158C55.1896 26.046 54.9768 25.4072 54.9768 24.5995C54.9768 23.7941 55.1909 23.1565 55.6189 22.6866C56.045 22.2191 56.6213 21.9854 57.3479 21.9854C57.9335 21.9854 58.4286 22.152 58.8338 22.4853C59.2386 22.8209 59.475 23.2548 59.5421 23.7871H58.5108C58.4437 23.5117 58.3059 23.2907 58.098 23.1241C57.8847 22.9597 57.6349 22.8776 57.3479 22.8776C56.952 22.8776 56.6373 23.0315 56.4036 23.3393C56.1677 23.6494 56.0494 24.0683 56.0494 24.596C56.0494 25.1306 56.1663 25.5518 56.4001 25.8596C56.6338 26.1698 56.9511 26.3248 57.3514 26.3248C57.6452 26.3248 57.8953 26.2485 58.1011 26.0957C58.305 25.9453 58.4428 25.7358 58.5143 25.4674H59.5452C59.4644 26.0043 59.2271 26.429 58.8338 26.7414C58.4379 27.0585 57.9429 27.217 57.3479 27.217ZM63.628 23.7177H63.5863L61.3125 27.1059H60.3024V22.0965H61.3471V25.4882H61.3889L63.6627 22.0965H64.6727V27.1059H63.628V23.7177ZM68.9813 23.7177H68.9395L66.6657 27.1059H65.6552V22.0965H66.7004V25.4882H66.7421L69.0159 22.0965H70.026V27.1059H68.9813V23.7177Z" fill="#E33143"/>
</g>
</g>
<defs>
<clipPath id="clip0_13_32948">
<rect width="100" height="32.8828" fill="white"/>
</clipPath>
<clipPath id="clip1_13_32948">
<rect width="99.9815" height="32.8828" fill="white" transform="translate(0.0078125)"/>
</clipPath>
</defs>
</svg>
