<svg width="100" height="17" viewBox="0 0 100 17" fill="none" xmlns="http://www.w3.org/2000/svg">
<g clip-path="url(#clip0_13_32962)">
<g clip-path="url(#clip1_13_32962)">
<path d="M25.9517 5.53019C25.3808 5.06601 24.6614 4.82374 23.926 4.84801H21.0254V12.6905H22.8532V10.0399H24.4155C24.5818 10.0406 24.7477 10.0232 24.9102 9.98783H25.0039C25.5617 9.81461 26.0374 9.44442 26.3423 8.94632C26.6368 8.5179 26.7897 8.00801 26.7797 7.48822C26.8033 7.11995 26.7408 6.75125 26.5971 6.41137C26.4533 6.07149 26.2324 5.76978 25.9517 5.53019ZM24.9102 7.44656C24.9203 7.57062 24.9016 7.69534 24.8555 7.81097C24.8095 7.92661 24.7373 8.03002 24.6446 8.11312C24.3974 8.28805 24.0982 8.3743 23.7958 8.35787H22.848V6.52483H23.8166C24.1187 6.50409 24.4182 6.59282 24.6602 6.77479C24.7549 6.85793 24.829 6.96182 24.8769 7.07835C24.9248 7.19487 24.9451 7.32089 24.9362 7.44656H24.9102ZM91.3477 5.53019C90.7748 5.06607 90.0538 4.82389 89.3168 4.84801H86.4162V12.6905H88.2441V10.0399H89.8063C89.9813 10.0426 90.1561 10.0251 90.3271 9.98783H90.426C90.9816 9.81307 91.4551 9.44311 91.7591 8.94632C92.0536 8.5179 92.2066 8.00801 92.1966 7.48822C92.2168 7.11835 92.1507 6.74884 92.0034 6.40897C91.856 6.06911 91.6316 5.76823 91.3477 5.53019ZM90.3062 7.44656C90.3165 7.57112 90.2974 7.69635 90.2504 7.81215C90.2033 7.92794 90.1297 8.03104 90.0354 8.11312C89.7905 8.28881 89.4927 8.3752 89.1918 8.35787H88.2232V6.52483H89.1918C89.4924 6.50346 89.7904 6.59232 90.0302 6.77479C90.1258 6.85715 90.2007 6.96091 90.2486 7.07764C90.2966 7.19437 90.3163 7.32077 90.3062 7.44656ZM36.0647 5.72808C35.3034 4.98161 34.2798 4.56348 33.2136 4.56348C32.1474 4.56348 31.1237 4.98161 30.3625 5.72808C29.6323 6.51649 29.2267 7.55147 29.2267 8.62606C29.2267 9.70065 29.6323 10.7356 30.3625 11.524C31.1307 12.2673 32.1577 12.6828 33.2266 12.6828C34.2955 12.6828 35.3225 12.2673 36.0907 11.524C36.8187 10.7345 37.2228 9.69995 37.2228 8.62606C37.2228 7.55218 36.8187 6.51762 36.0907 5.72808H36.0647ZM34.742 10.3159C34.5418 10.5165 34.3039 10.6756 34.0421 10.7842C33.7803 10.8928 33.4996 10.9487 33.2162 10.9487C32.9328 10.9487 32.6521 10.8928 32.3903 10.7842C32.1285 10.6756 31.8906 10.5165 31.6904 10.3159C31.3042 9.84341 31.0932 9.25193 31.0932 8.64168C31.0932 8.03144 31.3042 7.43995 31.6904 6.96747C31.8876 6.76563 32.1227 6.60478 32.3823 6.49417C32.6419 6.38356 32.9208 6.32537 33.203 6.32295C33.4851 6.32053 33.765 6.37393 34.0264 6.48007C34.2879 6.58621 34.5258 6.74301 34.7264 6.94143V6.96747C35.1154 7.43868 35.3282 8.03065 35.3282 8.64168C35.3282 9.25272 35.1154 9.84469 34.7264 10.3159H34.742ZM82.7762 5.72808C82.0151 4.98318 80.9926 4.56603 79.9276 4.56603C78.8627 4.56603 77.8402 4.98318 77.0791 5.72808C76.349 6.51649 75.9433 7.55147 75.9433 8.62606C75.9433 9.70065 76.349 10.7356 77.0791 11.524C77.8467 12.2685 78.874 12.6848 79.9433 12.6848C81.0126 12.6848 82.0398 12.2685 82.8074 11.524C83.5376 10.7356 83.9432 9.70065 83.9432 8.62606C83.9432 7.55147 83.5376 6.51649 82.8074 5.72808H82.7762ZM81.4534 10.2951C81.2536 10.4955 81.0163 10.6545 80.7549 10.7631C80.4935 10.8716 80.2133 10.9274 79.9303 10.9274C79.6472 10.9274 79.367 10.8716 79.1056 10.7631C78.8442 10.6545 78.6068 10.4955 78.4071 10.2951C78.0208 9.82259 77.8099 9.2311 77.8099 8.62085C77.8099 8.01061 78.0208 7.41912 78.4071 6.94664C78.6042 6.7448 78.8394 6.58395 79.099 6.47334C79.3586 6.36273 79.6375 6.30454 79.9196 6.30212C80.2018 6.2997 80.4816 6.3531 80.7431 6.45924C81.0045 6.56538 81.2424 6.72218 81.443 6.9206L81.4691 6.94664C81.8628 7.41565 82.0787 8.00846 82.0787 8.62085C82.0787 9.23325 81.8628 9.82606 81.4691 10.2951H81.4534ZM99.4298 4.84801H94.6128V12.6905H96.4511V6.54045H98.8726L98.9611 6.40506L99.685 5.31668L99.9922 4.84801H99.4298ZM74.0119 4.84801H67.5702V6.54045H70.0229V12.6905H71.8716V6.54045H74.3244V4.84801H74.0119ZM45.3133 10.644L45.1414 10.5607L44.9904 10.6804C44.6299 10.9514 44.1859 11.0878 43.7354 11.0658C43.4275 11.0799 43.1202 11.0292 42.8331 10.9171C42.5461 10.805 42.2858 10.6339 42.069 10.4148C41.8518 10.1843 41.6833 9.9124 41.5732 9.61541C41.4632 9.31842 41.414 9.00234 41.4285 8.68595C41.4137 8.37424 41.4629 8.06282 41.5731 7.77085C41.6832 7.47889 41.852 7.21257 42.069 6.9883C42.2844 6.7722 42.5424 6.60321 42.8266 6.49206C43.1107 6.3809 43.4149 6.32999 43.7198 6.34257C43.9897 6.34606 44.2558 6.40639 44.5009 6.51962C44.7694 6.64148 45.0091 6.81898 45.2039 7.04037L45.3862 7.25909L45.6101 7.08724L46.4485 6.45713L46.7037 6.26445L46.5006 6.02491C46.167 5.60377 45.7417 5.26432 45.2571 5.03239C44.7725 4.80047 44.2414 4.68219 43.7041 4.68657C43.1598 4.68267 42.6195 4.77978 42.1106 4.97299C41.6218 5.15692 41.1766 5.44068 40.8035 5.80619C40.4215 6.17002 40.123 6.61243 39.9287 7.10286C39.729 7.59932 39.6281 8.13001 39.6319 8.66512C39.6301 9.19908 39.7272 9.72875 39.9183 10.2274C40.1075 10.712 40.3907 11.1544 40.7515 11.5293C41.1204 11.8987 41.5644 12.1847 42.0534 12.3677C42.581 12.5574 43.1383 12.6508 43.6989 12.6437C44.1572 12.6654 44.6152 12.5966 45.0468 12.4411C45.4784 12.2856 45.8751 12.0465 46.2142 11.7376C46.2788 11.6771 46.3396 11.6127 46.3964 11.5449L46.6516 11.248L46.2975 11.0762L45.3133 10.644ZM55.9054 7.10807C55.7058 6.62295 55.4087 6.18403 55.0325 5.81853C54.6562 5.45304 54.2089 5.16878 53.7182 4.9834C53.2188 4.79529 52.6896 4.69828 52.1559 4.69699C51.6182 4.69284 51.0867 4.81175 50.602 5.04462C50.1173 5.27749 49.6923 5.61815 49.3595 6.04053L49.1564 6.28528L49.4116 6.47275L50.2448 7.10286L50.4739 7.27471L50.6562 7.0612C50.8495 6.8404 51.0873 6.66294 51.354 6.54045C51.5988 6.42702 51.8653 6.36837 52.1351 6.3686C52.4406 6.35333 52.7459 6.40246 53.0312 6.5128C53.3165 6.62315 53.5754 6.79225 53.7911 7.00913L53.9577 7.1966C53.9671 7.22144 53.9834 7.2431 54.0046 7.25909C54.1986 7.53215 54.3285 7.84542 54.3848 8.17561H51.3279L51.6456 8.64429L52.2028 9.47228L52.2913 9.60247H54.2702C54.1644 9.91725 53.986 10.2027 53.7494 10.4357C53.5333 10.6555 53.273 10.8271 52.9858 10.9393C52.6987 11.0515 52.391 11.1017 52.083 11.0866C51.634 11.11 51.1911 10.9735 50.8332 10.7013L50.6822 10.5815L50.5104 10.6648L49.5157 11.1491L49.1616 11.321L49.4168 11.6178C49.4793 11.6907 49.5418 11.748 49.5991 11.8105C49.9381 12.1194 50.3348 12.3585 50.7664 12.514C51.198 12.6695 51.656 12.7383 52.1143 12.7166C52.675 12.7245 53.2325 12.631 53.7599 12.4406C54.248 12.259 54.6906 11.9728 55.0565 11.6022C55.4206 11.2289 55.7058 10.7862 55.8949 10.3003C56.086 9.80166 56.1831 9.27199 56.1814 8.73802C56.1969 8.18188 56.1032 7.62808 55.9054 7.10807ZM65.7788 12.2791L62.8001 5.04589L62.7272 4.85842H61.0243L60.9514 5.04589L57.9936 12.2791L57.8217 12.6957H59.9047L59.9776 12.5031L61.8992 7.7486L63.8052 12.4979L63.8833 12.6905H65.9663L65.7788 12.2791Z" fill="black"/>
<path d="M7.51185 9.16009H0.0078125C0.0588135 9.70415 0.165252 10.2416 0.325471 10.764H4.77269L1.87731 13.6594C2.21573 14.0758 2.59615 14.4562 3.01255 14.7946L5.90793 11.8992V16.3465C6.43036 16.5067 6.96779 16.6131 7.51185 16.6641V9.16009ZM16.625 9.16009H9.12097V16.6641C9.66503 16.6131 10.2025 16.5067 10.7249 16.3465V10.764H14.5889C14.2733 11.5791 13.8029 12.3253 13.2037 12.9616V15.1019C14.675 14.0312 15.7573 12.5102 16.2865 10.7692V10.738C16.3178 10.639 16.3438 10.5349 16.3698 10.4307C16.3716 10.403 16.3716 10.3751 16.3698 10.3474C16.4011 10.2328 16.4219 10.1235 16.448 10.0141V9.92039C16.448 9.82665 16.4844 9.73292 16.5 9.63398C16.4978 9.60625 16.4978 9.57838 16.5 9.55065C16.5 9.46213 16.5261 9.3736 16.5365 9.28507C16.5622 9.24084 16.5918 9.19902 16.625 9.16009ZM8.33984 6.31091e-05C6.25157 -0.00806012 4.23639 0.768283 2.69332 2.17537C1.15026 3.58245 0.191827 5.51767 0.0078125 7.59783H5.68401L6.5797 5.99913H2.00229C2.14199 5.61441 2.31629 5.24316 2.52304 4.88992H7.20981L8.10551 3.28601H3.86658C5.09509 2.20125 6.67753 1.6026 8.31641 1.6026C9.95529 1.6026 11.5377 2.20125 12.7662 3.28601H8.53773L9.43342 4.88992H14.1202C14.3268 5.24324 14.5011 5.61448 14.6409 5.99913H10.0583L10.9436 7.59783H16.6198C16.4366 5.52663 15.4855 3.59878 13.9535 2.19297C12.4214 0.78715 10.4191 0.00496956 8.33984 6.31091e-05Z" fill="#0450F2"/>
</g>
</g>
<defs>
<clipPath id="clip0_13_32962">
<rect width="100" height="16.6641" fill="white"/>
</clipPath>
<clipPath id="clip1_13_32962">
<rect width="99.9844" height="16.6641" fill="white" transform="translate(0.0078125)"/>
</clipPath>
</defs>
</svg>
